<svg width="36" height="36" viewBox="0 0 36 36" fill="none" xmlns="http://www.w3.org/2000/svg">
<path d="M31.2033 16.5502L7.60079 3.04033C7.3421 2.8888 7.04771 2.80893 6.7479 2.80893C6.4481 2.80893 6.1537 2.8888 5.89501 3.04033C5.64052 3.18475 5.42919 3.39449 5.28284 3.64787C5.13649 3.90126 5.06043 4.18913 5.06251 4.48173V31.5183C5.06143 31.81 5.13797 32.0966 5.28427 32.349C5.43056 32.6013 5.64135 32.8101 5.89501 32.9541C6.1537 33.1056 6.4481 33.1855 6.7479 33.1855C7.04771 33.1855 7.3421 33.1056 7.60079 32.9541L31.1934 19.4541C31.4552 19.3128 31.6739 19.1036 31.8268 18.8485C31.9796 18.5934 32.0608 18.3017 32.0618 18.0043C32.0628 17.707 31.9836 17.4148 31.8325 17.1586C31.6814 16.9025 31.464 16.6918 31.2033 16.5488V16.5502ZM23.8289 13.6252L20.25 17.2041L7.08751 4.04298L23.8289 13.6252ZM6.18751 31.2652V4.73486L19.4541 18L6.18751 31.2652ZM7.08751 31.957L20.25 18.796L23.8289 22.3749L7.08751 31.957ZM30.6436 18.4739L24.8414 21.7969L21.0445 18L24.8414 14.2031L30.6563 17.5303C30.7426 17.5757 30.8148 17.6441 30.8648 17.7278C30.9148 17.8116 30.9407 17.9076 30.9397 18.0051C30.9387 18.1027 30.9108 18.1981 30.859 18.2808C30.8073 18.3635 30.7337 18.4303 30.6464 18.4739H30.6436Z" fill="white"/>
</svg>
